<svg xmlns="http://www.w3.org/2000/svg" viewBox="0 0 374 100"><path fill="#F5F4F0" fill-rule="nonzero" transform="translate(0 0)" d="M 66 0 L 66 67 A 33 33 0 0 1 0 67 L 22 67 A 11 11 0 0 0 44 67 L 44 0 Z"/><path fill="#F5F4F0" fill-rule="evenodd" transform="translate(78 0)" d="M 50 0 A 50 50 0 1 1 50 100 A 50 50 0 1 1 50 0 Z M 50 23 A 27 27 0 1 0 50 77 A 27 27 0 1 0 50 23 Z"/><path fill="#F5F4F0" fill-rule="nonzero" transform="translate(190 0)" d="M 0 0 L 24 0 L 38 70 L 52 0 L 76 0 L 44 100 L 32 100 Z"/><path fill="#F5F4F0" fill-rule="nonzero" transform="translate(274 0)" d="M 0 0 L 22 0 L 22 100 L 0 100 Z"/><path fill="#F5F4F0" fill-rule="nonzero" transform="translate(310 0)" d="M 0 0 L 64 0 L 64 22 L 22 22 L 22 39 L 54 39 L 54 61 L 22 61 L 22 78 L 64 78 L 64 100 L 0 100 Z"/></svg>
