<svg xmlns="http://www.w3.org/2000/svg" viewBox="0 0 410.76 100"><g transform="scale(0.2777777777777778)"><path fill="#F5F4F0" d="M179.16,6 L182.24,6.05 C191.16,7.78 199.14,12.50 205.29,19.23 C213.24,27.93 218.16,40.00 218.16,53.37 C218.16,66.74 213.24,78.81 205.29,87.51 C198.59,94.85 189.70,99.79 179.80,101.08 L179.16,101.08 C156.96,101.08 136.86,109.92 122.33,124.21 C107.83,138.48 98.84,158.20 98.84,179.98 C98.84,201.76 107.82,221.48 122.33,235.75 C136.87,250.05 156.97,258.90 179.16,258.90 C201.36,258.90 221.46,250.06 235.99,235.77 C250.50,221.50 259.48,201.78 259.48,180.00 C259.48,162.45 253.67,146.25 243.85,133.18 C233.77,119.75 219.43,109.57 202.80,104.56 L200.69,103.92 C205.05,101.27 209.03,97.96 212.53,94.14 C222.10,83.67 228.03,69.25 228.03,53.37 C228.03,37.49 222.10,23.07 212.53,12.60 C211.09,11.03 209.58,9.54 207.98,8.16 L215.65,9.74 C256.09,18.09 291.46,40.04 316.56,70.49 C341.22,100.40 356.00,138.51 356.00,179.99 C356.00,228.04 336.19,271.54 304.17,303.04 C272.18,334.50 227.98,353.96 179.17,353.96 C130.38,353.96 86.17,334.49 54.17,303.02 C22.15,271.53 2.34,228.03 2.34,179.98 C2.34,131.93 22.15,88.42 54.17,56.93 C86.18,25.47 130.38,6 179.16,6 Z"/></g><g transform="translate(134 13) scale(0.74)"><path fill="#F5F4F0" fill-rule="nonzero" transform="translate(0 0)" d="M 66 0 L 66 67 A 33 33 0 0 1 0 67 L 22 67 A 11 11 0 0 0 44 67 L 44 0 Z"/><path fill="#F5F4F0" fill-rule="evenodd" transform="translate(78 0)" d="M 50 0 A 50 50 0 1 1 50 100 A 50 50 0 1 1 50 0 Z M 50 23 A 27 27 0 1 0 50 77 A 27 27 0 1 0 50 23 Z"/><path fill="#F5F4F0" fill-rule="nonzero" transform="translate(190 0)" d="M 0 0 L 24 0 L 38 70 L 52 0 L 76 0 L 44 100 L 32 100 Z"/><path fill="#F5F4F0" fill-rule="nonzero" transform="translate(274 0)" d="M 0 0 L 22 0 L 22 100 L 0 100 Z"/><path fill="#F5F4F0" fill-rule="nonzero" transform="translate(310 0)" d="M 0 0 L 64 0 L 64 22 L 22 22 L 22 39 L 54 39 L 54 61 L 22 61 L 22 78 L 64 78 L 64 100 L 0 100 Z"/></g></svg>
