<?xml version="1.0" encoding="UTF-8" standalone="no"?>
<!DOCTYPE svg PUBLIC "-//W3C//DTD SVG 1.1//EN" "http://www.w3.org/Graphics/SVG/1.1/DTD/svg11.dtd">
<svg xmlns="http://www.w3.org/2000/svg" version="1.1" viewBox="0.00 0.00 512.00 512.00">
<g stroke-width="2.00" fill="none" stroke-linecap="butt">
<path stroke="#635bf3" stroke-opacity="0.545" vector-effect="non-scaling-stroke" d="
  M 165.53 31.08
  L 158.12 34.04"
/>
<path stroke="#635bf3" stroke-opacity="0.545" vector-effect="non-scaling-stroke" d="
  M 140.70 41.91
  Q 140.10 43.24 138.29 43.45"
/>
<path stroke="#635bf3" stroke-opacity="0.545" vector-effect="non-scaling-stroke" d="
  M 137.82 43.89
  L 122.16 52.90"
/>
<path stroke="#635bf3" stroke-opacity="0.545" vector-effect="non-scaling-stroke" d="
  M 105.58 64.58
  L 93.08 74.75"
/>
<path stroke="#635bf3" stroke-opacity="0.545" vector-effect="non-scaling-stroke" d="
  M 55.67 115.41
  Q 54.28 118.32 52.03 120.40"
/>
<path stroke="#635bf3" stroke-opacity="0.545" vector-effect="non-scaling-stroke" d="
  M 45.12 131.56
  L 40.05 140.00"
/>
<path stroke="#635bf3" stroke-opacity="0.545" vector-effect="non-scaling-stroke" d="
  M 478.65 153.23
  L 470.77 137.81"
/>
<path stroke="#635bf3" stroke-opacity="0.545" vector-effect="non-scaling-stroke" d="
  M 463.18 125.33
  L 460.01 120.31"
/>
<path stroke="#635bf3" stroke-opacity="0.545" vector-effect="non-scaling-stroke" d="
  M 440.05 95.31
  L 438.74 93.88"
/>
<path stroke="#635bf3" stroke-opacity="0.545" vector-effect="non-scaling-stroke" d="
  M 425.21 80.32
  Q 413.65 69.82 401.02 60.56"
/>
<path stroke="#635bf3" stroke-opacity="0.545" vector-effect="non-scaling-stroke" d="
  M 399.24 59.30
  Q 364.97 35.28 324.81 23.68"
/>
<path stroke="#635bf3" stroke-opacity="0.545" vector-effect="non-scaling-stroke" d="
  M 308.02 19.54
  L 297.63 17.40
  A 0.36 0.36 0.0 0 0 297.30 18.00
  L 299.35 20.15"
/>
<path stroke="#635bf3" stroke-opacity="0.545" vector-effect="non-scaling-stroke" d="
  M 293.34 144.79
  L 286.55 149.84
  A 0.41 0.41 0.0 0 0 286.66 150.56
  L 287.34 150.78"
/>
<path stroke="#635bf3" stroke-opacity="0.545" vector-effect="non-scaling-stroke" d="
  M 320.28 345.51
  L 315.75 348.65"
/>
<path stroke="#635bf3" stroke-opacity="0.545" vector-effect="non-scaling-stroke" d="
  M 279.26 363.23
  Q 261.81 366.81 245.06 365.14
  Q 241.53 364.79 238.03 364.21
  Q 236.77 364.00 233.05 363.22"
/>
<path stroke="#635bf3" stroke-opacity="0.545" vector-effect="non-scaling-stroke" d="
  M 231.15 362.81
  L 221.06 360.27
  A 1.05 1.02 74.1 0 1 220.59 360.00
  Q 220.48 359.88 220.43 359.79"
/>
<path stroke="#635bf3" stroke-opacity="0.545" vector-effect="non-scaling-stroke" d="
  M 219.55 359.67
  Q 192.33 350.39 173.28 329.33"
/>
<path stroke="#635bf3" stroke-opacity="0.545" vector-effect="non-scaling-stroke" d="
  M 168.26 323.77
  Q 162.43 316.66 157.91 308.56"
/>
<path stroke="#635bf3" stroke-opacity="0.545" vector-effect="non-scaling-stroke" d="
  M 296.21 36.89
  L 293.63 33.83"
/>
<path stroke="#635bf3" stroke-opacity="0.545" vector-effect="non-scaling-stroke" d="
  M 279.45 21.59
  C 275.34 19.60 271.28 17.26 267.06 15.84
  Q 262.48 14.29 260.77 14.26
  Q 246.36 13.97 235.79 14.85
  Q 213.49 16.71 191.34 22.61
  Q 191.14 22.66 190.93 22.59
  Q 190.71 22.51 190.51 22.48"
/>
<path stroke="#645de4" stroke-opacity="0.620" vector-effect="non-scaling-stroke" d="
  M 279.45 21.59
  Q 284.78 25.18 285.95 26.31
  Q 289.82 30.03 293.63 33.83"
/>
<path stroke="#645de4" stroke-opacity="0.620" vector-effect="non-scaling-stroke" d="
  M 296.21 36.89
  L 301.05 44.08
  A 1.44 0.79 42.6 0 1 301.14 44.24
  L 304.29 50.68
  A 0.96 0.17 80.0 0 1 304.33 50.79
  Q 304.57 51.61 306.02 55.39
  Q 309.26 63.83 310.00 74.50
  Q 310.29 78.72 309.64 91.28"
/>
<path stroke="#645dd8" stroke-opacity="0.702" vector-effect="non-scaling-stroke" d="
  M 309.64 91.28
  Q 308.47 93.77 308.50 97.01
  Q 308.50 97.30 308.09 97.47
  A 0.62 0.60 79.9 0 0 307.73 98.00
  Q 307.68 99.87 305.93 104.64
  Q 299.03 123.47 283.39 135.38
  Q 274.50 142.15 262.35 145.25
  Q 259.12 146.07 249.55 146.56
  Q 213.46 148.40 184.40 171.67
  Q 172.86 180.90 164.32 193.07
  Q 140.70 226.72 144.99 268.29"
/>
<path stroke="#645de4" stroke-opacity="0.620" vector-effect="non-scaling-stroke" d="
  M 144.99 268.29
  Q 145.97 277.51 148.72 286.26"
/>
<path stroke="#645dd8" stroke-opacity="0.702" vector-effect="non-scaling-stroke" d="
  M 148.72 286.26
  L 151.24 294.11"
/>
<path stroke="#645de4" stroke-opacity="0.620" vector-effect="non-scaling-stroke" d="
  M 151.24 294.11
  L 157.91 308.56"
/>
<path stroke="#645de4" stroke-opacity="0.620" vector-effect="non-scaling-stroke" d="
  M 168.26 323.77
  L 173.28 329.33"
/>
<path stroke="#645de4" stroke-opacity="0.620" vector-effect="non-scaling-stroke" d="
  M 219.55 359.67
  L 220.43 359.79"
/>
<path stroke="#645de4" stroke-opacity="0.620" vector-effect="non-scaling-stroke" d="
  M 231.15 362.81
  Q 231.92 363.19 233.05 363.22"
/>
<path stroke="#645de4" stroke-opacity="0.620" vector-effect="non-scaling-stroke" d="
  M 279.26 363.23
  Q 298.86 359.31 315.75 348.65"
/>
<path stroke="#645de4" stroke-opacity="0.620" vector-effect="non-scaling-stroke" d="
  M 320.28 345.51
  Q 328.01 340.78 334.08 334.02
  A 2.18 2.15 -80.6 0 1 334.84 333.47
  Q 335.66 333.11 335.84 332.79
  Q 336.93 330.85 338.69 329.73
  A 4.13 4.09 -85.6 0 0 339.58 328.96
  Q 347.76 319.69 354.06 308.57
  Q 363.99 291.04 366.68 270.95"
/>
<path stroke="#645dd8" stroke-opacity="0.702" vector-effect="non-scaling-stroke" d="
  M 366.68 270.95
  Q 367.21 269.76 366.98 268.21"
/>
<path stroke="#645de4" stroke-opacity="0.620" vector-effect="non-scaling-stroke" d="
  M 366.98 268.21
  Q 367.42 267.32 367.16 266.22"
/>
<path stroke="#645dd8" stroke-opacity="0.702" vector-effect="non-scaling-stroke" d="
  M 367.16 266.22
  Q 369.52 241.67 361.73 220.00
  Q 353.93 198.31 338.59 181.90
  Q 320.96 163.06 296.33 153.76
  Q 293.79 152.80 291.22 152.01"
/>
<path stroke="#645de4" stroke-opacity="0.620" vector-effect="non-scaling-stroke" d="
  M 291.22 152.01
  Q 289.51 151.03 288.23 151.29"
/>
<path stroke="#645dd8" stroke-opacity="0.702" vector-effect="non-scaling-stroke" d="
  M 288.23 151.29
  L 287.34 150.78"
/>
<path stroke="#645de4" stroke-opacity="0.620" vector-effect="non-scaling-stroke" d="
  M 293.34 144.79
  Q 298.23 141.56 301.89 137.16
  C 303.59 135.11 305.42 133.51 306.57 131.76
  Q 309.15 127.86 309.71 127.54
  A 1.11 1.11 0.0 0 0 310.25 126.82
  C 310.65 125.16 312.65 122.84 313.68 120.93
  Q 319.53 110.11 322.08 98.03"
/>
<path stroke="#645dd8" stroke-opacity="0.702" vector-effect="non-scaling-stroke" d="
  M 322.08 98.03
  L 323.65 86.57
  A 0.76 0.60 64.9 0 1 323.69 86.40
  Q 324.04 85.57 324.06 84.94
  Q 324.22 79.89 324.05 75.74
  A 1.73 0.55 51.0 0 0 323.72 74.89
  Q 323.58 74.66 323.58 74.26
  Q 323.62 71.38 323.16 66.97
  Q 323.08 66.19 322.85 65.93
  C 322.41 65.42 322.63 64.46 322.47 63.61
  Q 318.20 40.52 302.34 23.30"
/>
<path stroke="#645de4" stroke-opacity="0.620" vector-effect="non-scaling-stroke" d="
  M 302.34 23.30
  L 299.35 20.15"
/>
<path stroke="#645de4" stroke-opacity="0.620" vector-effect="non-scaling-stroke" d="
  M 308.02 19.54
  L 313.75 20.74
  A 0.66 0.59 -21.7 0 1 313.97 20.82
  Q 315.63 21.65 317.21 21.63
  A 1.50 1.49 -30.3 0 1 317.94 21.82
  Q 319.38 22.61 321.16 22.63
  A 0.78 0.65 -31.7 0 1 321.37 22.66
  L 324.81 23.68"
/>
<path stroke="#645de4" stroke-opacity="0.620" vector-effect="non-scaling-stroke" d="
  M 399.24 59.30
  Q 399.75 60.16 401.02 60.56"
/>
<path stroke="#645de4" stroke-opacity="0.620" vector-effect="non-scaling-stroke" d="
  M 425.21 80.32
  L 438.74 93.88"
/>
<path stroke="#645de4" stroke-opacity="0.620" vector-effect="non-scaling-stroke" d="
  M 440.05 95.31
  L 453.49 111.81
  A 2.16 2.04 80.9 0 0 454.26 112.40
  Q 454.63 112.56 454.54 113.04
  A 0.53 0.51 -59.6 0 0 454.64 113.45
  L 460.01 120.31"
/>
<path stroke="#645de4" stroke-opacity="0.620" vector-effect="non-scaling-stroke" d="
  M 463.18 125.33
  L 470.77 137.81"
/>
<path stroke="#645de4" stroke-opacity="0.620" vector-effect="non-scaling-stroke" d="
  M 478.65 153.23
  Q 482.19 160.17 484.85 167.51
  Q 484.89 167.65 485.06 167.59
  A 0.23 0.23 0.0 0 1 485.34 167.75
  C 486.38 171.82 488.32 175.87 489.50 179.46
  Q 496.07 199.35 499.35 220.02"
/>
<path stroke="#645dd8" stroke-opacity="0.702" vector-effect="non-scaling-stroke" d="
  M 499.35 220.02
  L 501.55 239.54"
/>
<path stroke="#645de4" stroke-opacity="0.620" vector-effect="non-scaling-stroke" d="
  M 501.55 239.54
  Q 502.73 257.68 501.30 275.73"
/>
<path stroke="#645dd8" stroke-opacity="0.702" vector-effect="non-scaling-stroke" d="
  M 501.30 275.73
  L 500.46 284.68
  A 0.10 0.08 -38.0 0 0 500.45 284.72
  L 499.32 292.28
  A 0.78 0.71 60.9 0 1 499.27 292.49
  Q 498.44 294.63 498.56 297.93
  A 1.81 1.81 0.0 0 1 498.34 298.87
  Q 498.32 298.92 498.24 299.02
  A 2.03 2.02 68.5 0 0 497.83 299.97
  Q 496.80 307.11 494.15 316.95
  Q 493.59 319.04 493.21 320.34
  Q 481.73 360.06 458.82 392.70
  A 0.99 0.96 1.1 0 1 458.55 392.95
  Q 457.77 393.40 457.81 394.11
  A 0.80 0.78 -18.6 0 1 457.46 394.80
  C 456.23 395.62 455.05 398.08 453.96 399.49
  Q 438.98 418.96 422.80 433.55
  Q 388.91 464.14 347.64 480.38
  Q 306.00 496.76 260.78 497.74
  Q 225.47 498.50 190.58 489.04
  Q 155.68 479.58 125.68 460.98
  Q 77.97 431.41 47.83 384.70
  Q 33.01 361.74 23.01 333.71
  Q 21.03 328.16 19.31 321.77
  Q 17.66 315.67 15.95 309.70
  Q 15.40 307.76 15.53 307.00
  Q 12.75 294.42 11.40 281.39"
/>
<path stroke="#645de4" stroke-opacity="0.620" vector-effect="non-scaling-stroke" d="
  M 11.40 281.39
  C 11.27 278.27 10.50 275.01 10.35 272.19
  Q 9.64 258.44 10.18 244.71"
/>
<path stroke="#645dd8" stroke-opacity="0.702" vector-effect="non-scaling-stroke" d="
  M 10.18 244.71
  L 13.29 216.24"
/>
<path stroke="#645de4" stroke-opacity="0.620" vector-effect="non-scaling-stroke" d="
  M 13.29 216.24
  Q 16.74 196.21 23.34 177.02"
/>
<path stroke="#645dd8" stroke-opacity="0.702" vector-effect="non-scaling-stroke" d="
  M 23.34 177.02
  L 26.18 169.21"
/>
<path stroke="#645de4" stroke-opacity="0.620" vector-effect="non-scaling-stroke" d="
  M 26.18 169.21
  Q 29.91 160.45 33.95 151.82
  Q 35.02 149.53 37.00 145.91
  Q 38.59 143.00 40.05 140.00"
/>
<path stroke="#645de4" stroke-opacity="0.620" vector-effect="non-scaling-stroke" d="
  M 45.12 131.56
  L 52.03 120.40"
/>
<path stroke="#645de4" stroke-opacity="0.620" vector-effect="non-scaling-stroke" d="
  M 55.67 115.41
  Q 68.28 98.91 72.89 94.30
  Q 78.30 88.87 78.44 88.56
  A 1.04 1.04 0.0 0 1 78.94 88.06
  Q 80.19 87.48 81.13 85.83
  A 0.87 0.86 -7.5 0 1 81.31 85.60
  L 89.21 78.39"
/>
<path stroke="#645dd8" stroke-opacity="0.702" vector-effect="non-scaling-stroke" d="
  M 89.21 78.39
  Q 89.45 78.18 89.49 77.79"
/>
<path stroke="#645de4" stroke-opacity="0.620" vector-effect="non-scaling-stroke" d="
  M 89.49 77.79
  L 93.08 74.75"
/>
<path stroke="#645de4" stroke-opacity="0.620" vector-effect="non-scaling-stroke" d="
  M 105.58 64.58
  L 122.16 52.90"
/>
<path stroke="#645de4" stroke-opacity="0.620" vector-effect="non-scaling-stroke" d="
  M 137.82 43.89
  Q 137.92 43.65 138.29 43.45"
/>
<path stroke="#645de4" stroke-opacity="0.620" vector-effect="non-scaling-stroke" d="
  M 140.70 41.91
  Q 145.23 40.30 148.39 38.38
  Q 149.95 37.42 151.34 37.19
  A 1.42 1.37 27.4 0 0 151.74 37.07
  L 158.12 34.04"
/>
<path stroke="#645de4" stroke-opacity="0.620" vector-effect="non-scaling-stroke" d="
  M 165.53 31.08
  L 182.83 25.07
  A 0.56 0.55 10.1 0 0 183.08 24.90
  Q 183.54 24.42 184.31 24.59
  A 0.42 0.40 -46.4 0 0 184.51 24.58
  L 190.00 22.95
  A 0.63 0.59 -76.1 0 0 190.29 22.76
  L 190.51 22.48"
/>
</g>
<path fill="#69696a" fill-opacity="0.090" d="
  M 285.17 19.38
  C 291.46 22.36 293.95 17.41 299.99 16.01
  Q 305.48 14.73 311.86 16.08
  C 353.50 24.86 392.80 45.25 424.59 72.98
  Q 427.83 75.80 439.01 87.05
  C 457.94 106.12 473.28 127.80 484.23 151.71
  C 486.96 157.66 490.65 164.51 493.32 171.60
  Q 504.81 202.02 507.87 232.19
  C 512.90 281.73 504.33 333.11 478.67 377.43
  Q 474.38 384.85 470.17 392.15
  Q 465.39 400.45 455.00 412.90
  Q 440.82 429.89 426.07 443.33
  Q 422.27 446.79 412.10 454.92
  C 398.91 465.46 385.13 473.45 369.68 481.46
  C 327.38 503.40 277.60 511.64 230.55 506.96
  C 179.23 501.86 131.40 481.79 92.01 449.01
  Q 86.69 444.58 77.60 435.73
  Q 68.96 427.32 64.01 421.65
  C 32.50 385.58 12.33 342.37 5.39 294.97
  C -1.80 245.93 6.13 193.64 28.56 149.13
  Q 30.39 145.51 38.90 130.86
  C 46.79 117.28 57.29 103.08 66.62 93.88
  C 76.05 84.57 85.12 74.37 96.17 65.67
  Q 163.26 12.86 249.01 9.88
  Q 259.54 9.52 269.79 12.55
  C 275.34 14.20 280.06 16.95 285.17 19.38
  Z
  M 190.51 22.48
  Q 182.50 23.77 173.41 27.17
  Q 168.63 28.95 165.53 31.08
  L 158.12 34.04
  Q 148.34 36.17 140.70 41.91
  Q 140.10 43.24 138.29 43.45
  Q 137.64 43.48 137.82 43.89
  L 122.16 52.90
  Q 119.92 53.58 118.00 54.75
  Q 109.35 60.03 102.36 65.86
  A 0.28 0.28 0.0 0 0 102.34 66.27
  L 102.36 66.30
  A 0.29 0.28 44.3 0 0 102.77 66.30
  Q 103.98 65.09 105.58 64.58
  L 93.08 74.75
  L 101.63 67.05
  A 0.18 0.18 0.0 0 0 101.66 66.82
  L 101.52 66.58
  A 0.29 0.28 54.4 0 0 101.08 66.50
  C 95.39 71.60 88.63 75.95 83.87 81.08
  C 79.22 86.10 72.11 92.07 67.14 97.90
  Q 63.58 102.08 60.02 106.30
  Q 56.94 109.95 53.57 116.20
  A 0.15 0.15 0.0 0 0 53.74 116.41
  Q 54.77 116.15 55.67 115.41
  Q 54.28 118.32 52.03 120.40
  Q 47.01 124.47 45.12 131.56
  L 40.05 140.00
  L 40.15 138.25
  A 0.75 0.72 78.1 0 1 40.52 137.66
  Q 40.93 137.43 40.92 137.08
  A 0.19 0.18 -30.1 0 0 40.58 136.99
  Q 29.60 154.19 23.12 173.06
  Q 22.29 175.47 18.15 187.46
  Q 15.88 194.03 13.88 202.12
  C 1.61 251.74 5.80 302.49 25.02 350.26
  Q 36.99 379.99 59.90 410.95
  Q 66.55 419.93 73.69 427.04
  C 86.66 439.95 100.52 453.30 116.58 461.73
  Q 117.68 462.31 120.59 464.90
  A 13.65 13.31 80.0 0 0 122.76 466.46
  C 134.70 473.36 147.03 480.26 160.23 485.02
  Q 167.23 487.55 174.18 490.01
  Q 209.12 502.38 246.60 503.44
  Q 265.45 503.98 278.52 503.11
  Q 295.40 501.99 319.72 496.19
  Q 324.76 494.99 328.59 493.59
  C 335.81 490.95 348.95 486.54 357.83 482.60
  Q 389.41 468.57 416.01 446.59
  C 421.04 442.43 425.66 437.58 430.81 433.03
  C 435.09 429.26 438.01 425.71 442.24 421.57
  Q 446.13 417.76 450.27 412.47
  Q 469.50 387.98 483.19 359.28
  Q 487.42 350.42 491.06 339.55
  Q 497.27 321.04 497.67 319.32
  Q 505.48 286.11 505.20 255.29
  Q 505.10 243.48 503.01 225.32
  A 0.02 0.02 0.0 0 0 502.97 225.31
  Q 502.96 225.35 502.95 225.38
  A 0.61 0.55 60.7 0 0 502.89 225.64
  Q 502.88 227.27 502.86 228.91
  Q 502.90 228.91 502.83 228.94
  A 0.05 0.05 0.0 0 1 502.77 228.89
  Q 500.17 198.75 488.43 171.11
  Q 487.87 169.78 486.37 167.23
  A 6.37 5.87 -70.7 0 1 485.80 165.91
  Q 482.10 153.21 474.41 141.66
  A 0.27 0.27 0.0 0 0 474.06 141.58
  L 474.05 141.59
  A 0.26 0.24 63.0 0 0 473.96 141.91
  L 478.65 153.23
  L 470.77 137.81
  L 472.21 138.59
  A 0.60 0.59 -72.8 0 1 472.52 139.19
  Q 472.44 139.82 473.02 140.21
  A 0.22 0.22 0.0 0 0 473.34 139.93
  C 470.90 135.19 467.62 129.43 463.18 125.33
  L 460.01 120.31
  Q 458.19 116.18 454.76 111.73
  Q 448.26 103.26 443.32 97.80
  Q 442.27 96.64 440.05 95.31
  L 438.74 93.88
  Q 433.63 85.23 425.21 80.32
  Q 413.65 69.82 401.02 60.56
  Q 400.27 59.71 399.24 59.30
  Q 364.97 35.28 324.81 23.68
  Q 316.86 20.38 308.02 19.54
  L 297.63 17.40
  A 0.36 0.36 0.0 0 0 297.30 18.00
  L 299.35 20.15
  C 299.39 28.63 304.58 33.30 308.27 39.22
  C 326.05 67.77 325.01 102.84 305.94 130.50
  C 302.63 135.29 297.54 140.01 293.34 144.79
  L 286.55 149.84
  A 0.41 0.41 0.0 0 0 286.66 150.56
  L 287.34 150.78
  Q 289.76 156.63 295.21 159.79
  C 325.92 172.13 347.92 193.62 358.97 225.58
  Q 368.75 253.83 361.67 283.87
  Q 358.93 295.47 353.37 306.08
  C 344.87 322.30 334.33 335.56 318.63 345.42
  A 0.22 0.21 23.1 0 0 318.79 345.81
  L 320.28 345.51
  L 315.75 348.65
  Q 313.28 348.97 311.16 350.13
  Q 302.26 354.99 292.68 358.37
  Q 285.99 360.73 279.26 363.23
  Q 261.81 366.81 245.06 365.14
  Q 241.53 364.79 238.03 364.21
  Q 236.77 364.00 233.05 363.22
  Q 231.85 362.22 230.25 362.15
  Q 230.04 362.14 229.92 362.24
  A 0.14 0.14 0.0 0 0 229.97 362.48
  L 231.15 362.81
  L 221.06 360.27
  A 1.05 1.02 74.1 0 1 220.59 360.00
  Q 220.48 359.88 220.43 359.79
  Q 220.15 359.44 219.55 359.67
  Q 192.33 350.39 173.28 329.33
  L 163.29 313.46
  A 0.37 0.34 60.6 0 0 162.83 313.31
  L 162.82 313.32
  A 0.31 0.29 -28.6 0 0 162.68 313.73
  L 168.26 323.77
  Q 162.43 316.66 157.91 308.56
  C 158.57 306.78 157.39 306.55 157.28 305.02
  A 0.02 0.02 0.0 0 1 157.31 305.01
  L 161.55 312.69
  A 0.18 0.18 0.0 0 0 161.79 312.76
  L 162.01 312.63
  A 0.31 0.31 0.0 0 0 162.12 312.20
  Q 148.28 288.81 147.44 262.29
  Q 146.64 236.88 157.89 213.23
  C 160.69 207.35 165.06 200.50 168.71 194.20
  L 169.36 192.32
  L 178.32 182.25
  L 179.44 181.39
  Q 180.65 181.89 181.76 181.00
  C 186.66 177.02 191.43 172.99 196.28 169.96
  Q 214.76 158.42 235.67 154.43
  C 242.57 153.11 250.34 152.98 256.19 152.38
  Q 269.64 151.01 280.65 143.64
  Q 295.57 133.64 303.38 119.68
  C 316.37 96.44 315.82 68.53 302.90 45.11
  Q 300.28 40.36 296.21 36.89
  L 293.63 33.83
  C 290.55 27.46 285.63 24.43 279.45 21.59
  C 275.34 19.60 271.28 17.26 267.06 15.84
  Q 262.48 14.29 260.77 14.26
  Q 246.36 13.97 235.79 14.85
  Q 213.49 16.71 191.34 22.61
  Q 191.14 22.66 190.93 22.59
  Q 190.71 22.51 190.51 22.48
  Z
  M 43.1013 132.8789
  A 0.32 0.10 -43.7 0 0 42.8009 133.0277
  A 0.32 0.10 -43.7 0 0 42.6387 133.3211
  A 0.32 0.10 -43.7 0 0 42.9391 133.1723
  A 0.32 0.10 -43.7 0 0 43.1013 132.8789
  Z
  M 282.13 153.70
  C 280.35 151.53 277.70 150.79 275.13 151.59
  Q 272.18 152.52 263.98 154.59
  C 256.72 156.43 247.91 156.66 240.23 157.82
  C 202.39 163.55 169.25 189.92 157.02 226.06
  C 140.30 275.49 162.75 327.48 208.78 350.48
  C 242.41 367.28 284.56 364.71 315.43 343.36
  C 342.33 324.75 358.82 296.90 360.30 263.77
  C 362.17 222.31 339.10 184.44 302.01 167.06
  Q 291.25 162.02 291.11 161.94
  C 286.95 159.55 285.36 157.65 282.13 153.70
  Z"
/>
<path fill="#635aff" d="
  M 279.45 21.59
  Q 284.78 25.18 285.95 26.31
  Q 289.82 30.03 293.63 33.83
  L 296.21 36.89
  L 301.05 44.08
  A 1.44 0.79 42.6 0 1 301.14 44.24
  L 304.29 50.68
  A 0.96 0.17 80.0 0 1 304.33 50.79
  Q 304.57 51.61 306.02 55.39
  Q 309.26 63.83 310.00 74.50
  Q 310.29 78.72 309.64 91.28
  Q 308.47 93.77 308.50 97.01
  Q 308.50 97.30 308.09 97.47
  A 0.62 0.60 79.9 0 0 307.73 98.00
  Q 307.68 99.87 305.93 104.64
  Q 299.03 123.47 283.39 135.38
  Q 274.50 142.15 262.35 145.25
  Q 259.12 146.07 249.55 146.56
  Q 213.46 148.40 184.40 171.67
  Q 172.86 180.90 164.32 193.07
  Q 140.70 226.72 144.99 268.29
  Q 145.97 277.51 148.72 286.26
  L 151.24 294.11
  L 157.91 308.56
  Q 162.43 316.66 168.26 323.77
  L 173.28 329.33
  Q 192.33 350.39 219.55 359.67
  L 220.43 359.79
  Q 220.48 359.88 220.59 360.00
  A 1.05 1.02 74.1 0 0 221.06 360.27
  L 231.15 362.81
  Q 231.92 363.19 233.05 363.22
  Q 236.77 364.00 238.03 364.21
  Q 241.53 364.79 245.06 365.14
  Q 261.81 366.81 279.26 363.23
  Q 298.86 359.31 315.75 348.65
  L 320.28 345.51
  Q 328.01 340.78 334.08 334.02
  A 2.18 2.15 -80.6 0 1 334.84 333.47
  Q 335.66 333.11 335.84 332.79
  Q 336.93 330.85 338.69 329.73
  A 4.13 4.09 -85.6 0 0 339.58 328.96
  Q 347.76 319.69 354.06 308.57
  Q 363.99 291.04 366.68 270.95
  Q 367.21 269.76 366.98 268.21
  Q 367.42 267.32 367.16 266.22
  Q 369.52 241.67 361.73 220.00
  Q 353.93 198.31 338.59 181.90
  Q 320.96 163.06 296.33 153.76
  Q 293.79 152.80 291.22 152.01
  Q 289.51 151.03 288.23 151.29
  L 287.34 150.78
  L 286.66 150.56
  A 0.41 0.41 0.0 0 1 286.55 149.84
  L 293.34 144.79
  Q 298.23 141.56 301.89 137.16
  C 303.59 135.11 305.42 133.51 306.57 131.76
  Q 309.15 127.86 309.71 127.54
  A 1.11 1.11 0.0 0 0 310.25 126.82
  C 310.65 125.16 312.65 122.84 313.68 120.93
  Q 319.53 110.11 322.08 98.03
  L 323.65 86.57
  A 0.76 0.60 64.9 0 1 323.69 86.40
  Q 324.04 85.57 324.06 84.94
  Q 324.22 79.89 324.05 75.74
  A 1.73 0.55 51.0 0 0 323.72 74.89
  Q 323.58 74.66 323.58 74.26
  Q 323.62 71.38 323.16 66.97
  Q 323.08 66.19 322.85 65.93
  C 322.41 65.42 322.63 64.46 322.47 63.61
  Q 318.20 40.52 302.34 23.30
  L 299.35 20.15
  L 297.30 18.00
  A 0.36 0.36 0.0 0 1 297.63 17.40
  L 308.02 19.54
  L 313.75 20.74
  A 0.66 0.59 -21.7 0 1 313.97 20.82
  Q 315.63 21.65 317.21 21.63
  A 1.50 1.49 -30.3 0 1 317.94 21.82
  Q 319.38 22.61 321.16 22.63
  A 0.78 0.65 -31.7 0 1 321.37 22.66
  L 324.81 23.68
  Q 364.97 35.28 399.24 59.30
  Q 399.75 60.16 401.02 60.56
  Q 413.65 69.82 425.21 80.32
  L 438.74 93.88
  L 440.05 95.31
  L 453.49 111.81
  A 2.16 2.04 80.9 0 0 454.26 112.40
  Q 454.63 112.56 454.54 113.04
  A 0.53 0.51 -59.6 0 0 454.64 113.45
  L 460.01 120.31
  L 463.18 125.33
  L 470.77 137.81
  L 478.65 153.23
  Q 482.19 160.17 484.85 167.51
  Q 484.89 167.65 485.06 167.59
  A 0.23 0.23 0.0 0 1 485.34 167.75
  C 486.38 171.82 488.32 175.87 489.50 179.46
  Q 496.07 199.35 499.35 220.02
  L 501.55 239.54
  Q 502.73 257.68 501.30 275.73
  L 500.46 284.68
  A 0.10 0.08 -38.0 0 0 500.45 284.72
  L 499.32 292.28
  A 0.78 0.71 60.9 0 1 499.27 292.49
  Q 498.44 294.63 498.56 297.93
  A 1.81 1.81 0.0 0 1 498.34 298.87
  Q 498.32 298.92 498.24 299.02
  A 2.03 2.02 68.5 0 0 497.83 299.97
  Q 496.80 307.11 494.15 316.95
  Q 493.59 319.04 493.21 320.34
  Q 481.73 360.06 458.82 392.70
  A 0.99 0.96 1.1 0 1 458.55 392.95
  Q 457.77 393.40 457.81 394.11
  A 0.80 0.78 -18.6 0 1 457.46 394.80
  C 456.23 395.62 455.05 398.08 453.96 399.49
  Q 438.98 418.96 422.80 433.55
  Q 388.91 464.14 347.64 480.38
  Q 306.00 496.76 260.78 497.74
  Q 225.47 498.50 190.58 489.04
  Q 155.68 479.58 125.68 460.98
  Q 77.97 431.41 47.83 384.70
  Q 33.01 361.74 23.01 333.71
  Q 21.03 328.16 19.31 321.77
  Q 17.66 315.67 15.95 309.70
  Q 15.40 307.76 15.53 307.00
  Q 12.75 294.42 11.40 281.39
  C 11.27 278.27 10.50 275.01 10.35 272.19
  Q 9.64 258.44 10.18 244.71
  L 13.29 216.24
  Q 16.74 196.21 23.34 177.02
  L 26.18 169.21
  Q 29.91 160.45 33.95 151.82
  Q 35.02 149.53 37.00 145.91
  Q 38.59 143.00 40.05 140.00
  L 45.12 131.56
  L 52.03 120.40
  Q 54.28 118.32 55.67 115.41
  Q 68.28 98.91 72.89 94.30
  Q 78.30 88.87 78.44 88.56
  A 1.04 1.04 0.0 0 1 78.94 88.06
  Q 80.19 87.48 81.13 85.83
  A 0.87 0.86 -7.5 0 1 81.31 85.60
  L 89.21 78.39
  Q 89.45 78.18 89.49 77.79
  L 93.08 74.75
  L 105.58 64.58
  L 122.16 52.90
  L 137.82 43.89
  Q 137.92 43.65 138.29 43.45
  Q 140.10 43.24 140.70 41.91
  Q 145.23 40.30 148.39 38.38
  Q 149.95 37.42 151.34 37.19
  A 1.42 1.37 27.4 0 0 151.74 37.07
  L 158.12 34.04
  L 165.53 31.08
  L 182.83 25.07
  A 0.56 0.55 10.1 0 0 183.08 24.90
  Q 183.54 24.42 184.31 24.59
  A 0.42 0.40 -46.4 0 0 184.51 24.58
  L 190.00 22.95
  A 0.63 0.59 -76.1 0 0 190.29 22.76
  L 190.51 22.48
  Q 190.71 22.51 190.93 22.59
  Q 191.14 22.66 191.34 22.61
  Q 213.49 16.71 235.79 14.85
  Q 246.36 13.97 260.77 14.26
  Q 262.48 14.29 267.06 15.84
  C 271.28 17.26 275.34 19.60 279.45 21.59
  Z"
/>
<path fill="#676773" fill-opacity="0.239" d="
  M 324.81 23.68
  L 321.37 22.66
  A 0.78 0.65 -31.7 0 0 321.16 22.63
  Q 319.38 22.61 317.94 21.82
  A 1.50 1.49 -30.3 0 0 317.21 21.63
  Q 315.63 21.65 313.97 20.82
  A 0.66 0.59 -21.7 0 0 313.75 20.74
  L 308.02 19.54
  Q 316.86 20.38 324.81 23.68
  Z"
/>
<path fill="#676773" fill-opacity="0.239" d="
  M 302.34 23.30
  Q 304.53 29.21 307.26 32.97
  C 315.60 44.48 320.25 57.64 322.03 71.56
  Q 322.84 77.87 322.57 90.73
  A 0.13 0.12 -83.7 0 1 322.43 90.85
  L 322.13 90.81
  A 0.32 0.32 0.0 0 1 321.86 90.49
  Q 322.16 78.37 320.87 66.38
  L 320.87 66.37
  Q 320.87 66.44 320.87 66.50
  Q 320.82 68.75 321.10 70.98
  Q 322.50 82.40 321.54 93.85
  Q 321.47 94.73 322.08 98.03
  Q 319.53 110.11 313.68 120.93
  C 312.65 122.84 310.65 125.16 310.25 126.82
  A 1.11 1.11 0.0 0 1 309.71 127.54
  Q 309.15 127.86 306.57 131.76
  C 305.42 133.51 303.59 135.11 301.89 137.16
  Q 298.23 141.56 293.34 144.79
  C 297.54 140.01 302.63 135.29 305.94 130.50
  C 325.01 102.84 326.05 67.77 308.27 39.22
  C 304.58 33.30 299.39 28.63 299.35 20.15
  L 302.34 23.30
  Z"
/>
<path fill="#676773" fill-opacity="0.239" d="
  M 293.63 33.83
  Q 289.82 30.03 285.95 26.31
  Q 284.78 25.18 279.45 21.59
  C 285.63 24.43 290.55 27.46 293.63 33.83
  Z"
/>
<path fill="#676773" fill-opacity="0.239" d="
  M 190.51 22.48
  L 190.29 22.76
  A 0.63 0.59 -76.1 0 1 190.00 22.95
  L 184.51 24.58
  A 0.42 0.40 -46.4 0 1 184.31 24.59
  Q 183.54 24.42 183.08 24.90
  A 0.56 0.55 10.1 0 1 182.83 25.07
  L 165.53 31.08
  Q 168.63 28.95 173.41 27.17
  Q 182.50 23.77 190.51 22.48
  Z"
/>
<path fill="#676677" fill-opacity="0.404" d="
  M 322.08 98.03
  Q 321.47 94.73 321.54 93.85
  Q 322.50 82.40 321.10 70.98
  Q 320.82 68.75 320.87 66.50
  Q 320.87 66.44 320.87 66.37
  L 320.87 66.38
  Q 322.16 78.37 321.86 90.49
  A 0.32 0.32 0.0 0 0 322.13 90.81
  L 322.43 90.85
  A 0.13 0.12 -83.7 0 0 322.57 90.73
  Q 322.84 77.87 322.03 71.56
  C 320.25 57.64 315.60 44.48 307.26 32.97
  Q 304.53 29.21 302.34 23.30
  Q 318.20 40.52 322.47 63.61
  C 322.63 64.46 322.41 65.42 322.85 65.93
  Q 323.08 66.19 323.16 66.97
  Q 323.62 71.38 323.58 74.26
  Q 323.58 74.66 323.72 74.89
  A 1.73 0.55 51.0 0 1 324.05 75.74
  Q 324.22 79.89 324.06 84.94
  Q 324.04 85.57 323.69 86.40
  A 0.76 0.60 64.9 0 0 323.65 86.57
  L 322.08 98.03
  Z"
/>
<path fill="#676773" fill-opacity="0.239" d="
  M 158.12 34.04
  L 151.74 37.07
  A 1.42 1.37 27.4 0 1 151.34 37.19
  Q 149.95 37.42 148.39 38.38
  Q 145.23 40.30 140.70 41.91
  Q 148.34 36.17 158.12 34.04
  Z"
/>
<path fill="#676773" fill-opacity="0.239" d="
  M 179.44 181.39
  Q 197.10 164.73 220.04 156.96
  Q 226.53 154.77 231.83 153.92
  A 2.12 2.08 -71.0 0 0 232.99 153.34
  Q 233.82 152.54 236.13 153.07
  Q 236.16 153.08 236.34 152.95
  Q 236.49 152.83 236.54 152.75
  A 0.15 0.14 9.6 0 0 236.39 152.54
  Q 231.47 153.14 228.37 153.38
  L 228.36 153.38
  A 0.01 0.00 58.3 0 1 228.36 153.37
  Q 236.54 152.21 247.61 150.82
  Q 261.61 149.06 266.69 147.33
  C 288.50 139.88 304.23 120.79 309.27 98.31
  Q 311.96 86.28 311.23 76.75
  A 0.16 0.16 0.0 0 0 311.06 76.60
  L 311.05 76.60
  A 0.19 0.18 86.9 0 0 310.88 76.80
  Q 311.31 84.18 309.64 91.28
  Q 310.29 78.72 310.00 74.50
  Q 309.26 63.83 306.02 55.39
  Q 304.57 51.61 304.33 50.79
  A 0.96 0.17 80.0 0 0 304.29 50.68
  L 301.14 44.24
  A 1.44 0.79 42.6 0 0 301.05 44.08
  L 296.21 36.89
  Q 300.28 40.36 302.90 45.11
  C 315.82 68.53 316.37 96.44 303.38 119.68
  Q 295.57 133.64 280.65 143.64
  Q 269.64 151.01 256.19 152.38
  C 250.34 152.98 242.57 153.11 235.67 154.43
  Q 214.76 158.42 196.28 169.96
  C 191.43 172.99 186.66 177.02 181.76 181.00
  Q 180.65 181.89 179.44 181.39
  Z"
/>
<path fill="#676773" fill-opacity="0.239" d="
  M 138.29 43.45
  Q 137.92 43.65 137.82 43.89
  Q 137.64 43.48 138.29 43.45
  Z"
/>
<path fill="#676773" fill-opacity="0.239" d="
  M 122.16 52.90
  L 105.58 64.58
  Q 103.98 65.09 102.77 66.30
  A 0.29 0.28 44.3 0 1 102.36 66.30
  L 102.34 66.27
  A 0.28 0.28 0.0 0 1 102.36 65.86
  Q 109.35 60.03 118.00 54.75
  Q 119.92 53.58 122.16 52.90
  Z"
/>
<path fill="#676773" fill-opacity="0.239" d="
  M 401.02 60.56
  Q 399.75 60.16 399.24 59.30
  Q 400.27 59.71 401.02 60.56
  Z"
/>
<path fill="#676773" fill-opacity="0.239" d="
  M 93.08 74.75
  L 89.49 77.79
  Q 89.27 78.05 89.21 78.39
  L 81.31 85.60
  A 0.87 0.86 -7.5 0 0 81.13 85.83
  Q 80.19 87.48 78.94 88.06
  A 1.04 1.04 0.0 0 0 78.44 88.56
  Q 78.30 88.87 72.89 94.30
  Q 68.28 98.91 55.67 115.41
  Q 54.77 116.15 53.74 116.41
  A 0.15 0.15 0.0 0 1 53.57 116.20
  Q 56.94 109.95 60.02 106.30
  Q 63.58 102.08 67.14 97.90
  C 72.11 92.07 79.22 86.10 83.87 81.08
  C 88.63 75.95 95.39 71.60 101.08 66.50
  A 0.29 0.28 54.4 0 1 101.52 66.58
  L 101.66 66.82
  A 0.18 0.18 0.0 0 1 101.63 67.05
  L 93.08 74.75
  Z"
/>
<path fill="#676677" fill-opacity="0.404" d="
  M 179.44 181.39
  L 178.32 182.25
  Q 178.46 181.99 178.31 181.87
  Q 177.92 181.55 177.61 181.94
  Q 173.43 187.26 169.36 192.32
  L 168.71 194.20
  L 166.90 195.91
  A 0.18 0.18 0.0 0 1 166.61 195.69
  L 167.18 194.63
  A 0.16 0.16 0.0 0 0 166.90 194.46
  L 162.11 201.28
  A 0.37 0.28 -10.9 0 1 162.03 201.37
  Q 160.92 202.24 160.61 204.00
  A 0.29 0.29 0.0 0 1 160.15 204.19
  L 159.88 204.00
  A 0.19 0.19 0.0 0 1 159.83 203.74
  L 164.58 197.00
  A 0.12 0.11 43.2 0 0 164.57 196.84
  L 164.56 196.84
  A 0.21 0.21 0.0 0 0 164.26 196.88
  C 157.65 206.17 154.26 215.75 151.11 225.39
  Q 145.74 241.84 145.47 259.97
  C 145.41 264.09 146.24 268.94 146.90 273.30
  A 0.20 0.20 0.0 0 1 146.72 273.54
  L 146.72 273.55
  A 0.17 0.17 0.0 0 1 146.53 273.40
  Q 146.18 270.72 144.99 268.29
  Q 140.70 226.72 164.32 193.07
  Q 172.86 180.90 184.40 171.67
  Q 213.46 148.40 249.55 146.56
  Q 259.12 146.07 262.35 145.25
  Q 274.50 142.15 283.39 135.38
  Q 299.03 123.47 305.93 104.64
  Q 307.68 99.87 307.73 98.00
  A 0.62 0.60 79.9 0 1 308.09 97.47
  Q 308.50 97.30 308.50 97.01
  Q 308.47 93.77 309.64 91.28
  Q 311.31 84.18 310.88 76.80
  A 0.19 0.18 86.9 0 1 311.05 76.60
  L 311.06 76.60
  A 0.16 0.16 0.0 0 1 311.23 76.75
  Q 311.96 86.28 309.27 98.31
  C 304.23 120.79 288.50 139.88 266.69 147.33
  Q 261.61 149.06 247.61 150.82
  Q 236.54 152.21 228.36 153.37
  A 0.01 0.00 58.3 0 0 228.36 153.38
  L 228.37 153.38
  Q 231.47 153.14 236.39 152.54
  A 0.15 0.14 9.6 0 1 236.54 152.75
  Q 236.49 152.83 236.34 152.95
  Q 236.16 153.08 236.13 153.07
  Q 233.82 152.54 232.99 153.34
  A 2.12 2.08 -71.0 0 1 231.83 153.92
  Q 226.53 154.77 220.04 156.96
  Q 197.10 164.73 179.44 181.39
  Z"
/>
<path fill="#676677" fill-opacity="0.404" d="
  M 89.49 77.79
  Q 89.45 78.18 89.21 78.39
  Q 89.27 78.05 89.49 77.79
  Z"
/>
<path fill="#676773" fill-opacity="0.239" d="
  M 438.74 93.88
  L 425.21 80.32
  Q 433.63 85.23 438.74 93.88
  Z"
/>
<path fill="#676773" fill-opacity="0.239" d="
  M 460.01 120.31
  L 454.64 113.45
  A 0.53 0.51 -59.6 0 1 454.54 113.04
  Q 454.63 112.56 454.26 112.40
  A 2.16 2.04 80.9 0 1 453.49 111.81
  L 440.05 95.31
  Q 442.27 96.64 443.32 97.80
  Q 448.26 103.26 454.76 111.73
  Q 458.19 116.18 460.01 120.31
  Z"
/>
<path fill="#676773" fill-opacity="0.239" d="
  M 52.03 120.40
  L 45.12 131.56
  Q 47.01 124.47 52.03 120.40
  Z"
/>
<path fill="#676773" fill-opacity="0.239" d="
  M 470.77 137.81
  L 463.18 125.33
  C 467.62 129.43 470.90 135.19 473.34 139.93
  A 0.22 0.22 0.0 0 1 473.02 140.21
  Q 472.44 139.82 472.52 139.19
  A 0.60 0.59 -72.8 0 0 472.21 138.59
  L 470.77 137.81
  Z"
/>
<ellipse fill="#676773" fill-opacity="0.239" cx="0.00" cy="0.00" transform="translate(42.87,133.10) rotate(-43.7)" rx="0.32" ry="0.10"/>
<path fill="#676773" fill-opacity="0.239" d="
  M 40.05 140.00
  Q 38.59 143.00 37.00 145.91
  Q 35.02 149.53 33.95 151.82
  Q 29.91 160.45 26.18 169.21
  L 23.34 177.02
  Q 16.74 196.21 13.29 216.24
  Q 12.95 213.26 11.90 217.89
  A 0.08 0.08 0.0 0 1 11.74 217.87
  Q 11.76 217.04 11.74 216.43
  L 11.73 216.44
  Q 11.42 221.11 10.03 233.31
  Q 9.47 238.22 10.18 244.71
  Q 9.64 258.44 10.35 272.19
  C 10.50 275.01 11.27 278.27 11.40 281.39
  Q 9.93 279.86 10.46 284.64
  Q 12.85 305.86 19.13 326.02
  Q 20.07 329.04 20.32 332.19
  A 5.57 5.47 -56.6 0 0 20.56 333.42
  Q 25.47 348.94 30.69 359.78
  Q 34.65 368.00 41.95 382.14
  C 42.82 383.83 44.25 385.06 45.15 386.46
  Q 51.47 396.35 58.69 406.05
  Q 58.80 406.19 58.81 406.64
  A 0.80 0.77 -67.9 0 0 59.01 407.14
  Q 67.13 416.22 76.32 426.92
  Q 81.00 432.36 86.73 436.27
  C 95.67 442.35 101.84 447.73 115.19 458.54
  Q 116.91 459.93 119.87 461.64
  Q 133.52 469.48 144.52 474.92
  C 148.10 476.69 152.04 479.60 155.78 480.77
  Q 160.04 482.10 165.58 483.96
  A 0.89 0.85 -7.0 0 1 165.97 484.25
  Q 166.00 484.30 166.05 484.39
  A 1.02 1.02 0.0 0 0 166.56 484.78
  C 180.41 489.50 188.20 492.69 198.76 494.59
  C 201.02 494.99 204.30 494.68 207.18 495.07
  C 211.83 495.70 216.66 496.63 220.61 496.63
  Q 220.55 496.63 220.50 496.62
  Q 212.10 495.97 203.76 494.96
  A 0.37 0.37 0.0 0 0 203.35 495.26
  L 203.35 495.28
  A 0.31 0.30 10.7 0 0 203.59 495.63
  Q 223.20 499.96 244.39 501.74
  Q 251.72 502.35 258.50 502.06
  C 270.02 501.55 278.62 501.74 289.07 500.37
  Q 289.11 500.36 305.93 498.01
  A 0.29 0.29 0.0 0 0 306.18 497.68
  L 306.14 497.42
  A 0.06 0.06 0.0 0 0 306.07 497.37
  L 300.34 498.19
  A 0.16 0.16 0.0 0 1 300.16 498.05
  L 300.12 497.77
  A 0.25 0.25 0.0 0 1 300.35 497.48
  C 309.38 496.66 318.54 494.08 325.29 492.39
  A 0.10 0.10 0.0 0 0 325.29 492.20
  L 325.03 492.15
  A 0.16 0.16 0.0 0 1 325.03 491.84
  Q 354.69 483.63 381.85 467.53
  Q 396.97 458.56 403.45 453.70
  Q 406.02 451.77 416.55 442.85
  Q 423.55 436.91 426.09 434.77
  Q 432.29 429.52 437.07 424.06
  Q 443.23 417.01 451.12 406.36
  Q 451.12 406.37 451.13 406.37
  Q 449.49 409.36 447.11 411.96
  A 0.20 0.20 0.0 0 0 447.15 412.26
  L 447.47 412.48
  A 0.25 0.25 0.0 0 0 447.80 412.45
  C 451.38 408.54 456.82 402.18 458.63 396.73
  C 459.10 395.32 461.81 393.06 462.91 391.33
  Q 469.63 380.82 473.37 373.65
  C 476.67 367.30 481.58 361.08 483.75 354.59
  Q 485.80 348.44 486.63 346.73
  Q 489.60 340.66 491.70 334.17
  A 0.06 0.06 0.0 0 0 491.60 334.12
  Q 491.50 334.27 491.36 334.27
  A 0.18 0.18 0.0 0 1 491.17 334.09
  Q 491.19 333.34 494.47 322.04
  Q 500.43 301.45 502.38 276.66
  Q 502.77 271.70 502.37 269.63
  A 0.08 0.04 73.2 0 0 502.29 269.55
  Q 502.24 269.59 502.24 269.60
  A 0.52 0.26 83.3 0 0 502.14 269.87
  L 501.30 275.73
  Q 502.73 257.68 501.55 239.54
  Q 502.46 229.35 499.35 220.02
  Q 496.07 199.35 489.50 179.46
  C 488.32 175.87 486.38 171.82 485.34 167.75
  A 0.23 0.23 0.0 0 0 485.06 167.59
  Q 484.89 167.65 484.85 167.51
  Q 482.19 160.17 478.65 153.23
  L 473.96 141.91
  A 0.26 0.24 63.0 0 1 474.05 141.59
  L 474.06 141.58
  A 0.27 0.27 0.0 0 1 474.41 141.66
  Q 482.10 153.21 485.80 165.91
  A 6.37 5.87 -70.7 0 0 486.37 167.23
  Q 487.87 169.78 488.43 171.11
  Q 500.17 198.75 502.77 228.89
  A 0.05 0.05 0.0 0 0 502.83 228.94
  Q 502.90 228.91 502.86 228.91
  Q 502.88 227.27 502.89 225.64
  A 0.61 0.55 60.7 0 1 502.95 225.38
  Q 502.96 225.35 502.97 225.31
  A 0.02 0.02 0.0 0 1 503.01 225.32
  Q 505.10 243.48 505.20 255.29
  Q 505.48 286.11 497.67 319.32
  Q 497.27 321.04 491.06 339.55
  Q 487.42 350.42 483.19 359.28
  Q 469.50 387.98 450.27 412.47
  Q 446.13 417.76 442.24 421.57
  C 438.01 425.71 435.09 429.26 430.81 433.03
  C 425.66 437.58 421.04 442.43 416.01 446.59
  Q 389.41 468.57 357.83 482.60
  C 348.95 486.54 335.81 490.95 328.59 493.59
  Q 324.76 494.99 319.72 496.19
  Q 295.40 501.99 278.52 503.11
  Q 265.45 503.98 246.60 503.44
  Q 209.12 502.38 174.18 490.01
  Q 167.23 487.55 160.23 485.02
  C 147.03 480.26 134.70 473.36 122.76 466.46
  A 13.65 13.31 80.0 0 1 120.59 464.90
  Q 117.68 462.31 116.58 461.73
  C 100.52 453.30 86.66 439.95 73.69 427.04
  Q 66.55 419.93 59.90 410.95
  Q 36.99 379.99 25.02 350.26
  C 5.80 302.49 1.61 251.74 13.88 202.12
  Q 15.88 194.03 18.15 187.46
  Q 22.29 175.47 23.12 173.06
  Q 29.60 154.19 40.58 136.99
  A 0.19 0.18 -30.1 0 1 40.92 137.08
  Q 40.93 137.43 40.52 137.66
  A 0.75 0.72 78.1 0 0 40.15 138.25
  L 40.05 140.00
  Z"
/>
<path fill="#676677" fill-opacity="0.404" d="
  M 288.23 151.29
  Q 291.13 156.64 296.06 158.76
  Q 309.17 164.41 311.57 165.86
  Q 311.73 165.95 311.87 165.98
  A 0.29 0.29 0.0 0 0 312.05 165.43
  Q 308.21 163.65 306.25 161.80
  A 5.57 5.45 79.3 0 0 304.99 160.92
  C 300.77 158.82 294.65 157.17 291.22 152.01
  Q 293.79 152.80 296.33 153.76
  Q 320.96 163.06 338.59 181.90
  Q 353.93 198.31 361.73 220.00
  Q 369.52 241.67 367.16 266.22
  Q 366.93 260.26 366.70 254.33
  Q 366.10 239.00 361.83 225.74
  C 359.25 217.75 355.37 211.82 351.24 204.24
  C 348.76 199.68 345.47 195.34 342.72 190.63
  A 15.15 14.86 7.4 0 0 340.19 187.41
  L 326.81 174.56
  A 0.23 0.21 -45.0 0 0 326.50 174.57
  L 326.30 174.77
  A 0.39 0.38 -46.5 0 0 326.31 175.33
  L 330.97 179.56
  A 0.21 0.21 0.0 0 1 330.99 179.86
  L 330.98 179.87
  A 0.21 0.20 -46.0 0 1 330.68 179.88
  Q 327.13 176.43 323.02 173.86
  A 6.38 6.36 -6.4 0 1 321.80 172.89
  Q 318.96 170.01 316.91 169.12
  Q 309.22 165.77 302.17 162.22
  C 300.04 161.14 297.56 160.43 295.21 159.79
  Q 289.76 156.63 287.34 150.78
  L 288.23 151.29
  Z"
/>
<path fill="#676773" fill-opacity="0.239" d="
  M 291.22 152.01
  C 294.65 157.17 300.77 158.82 304.99 160.92
  A 5.57 5.45 79.3 0 1 306.25 161.80
  Q 308.21 163.65 312.05 165.43
  A 0.29 0.29 0.0 0 1 311.87 165.98
  Q 311.73 165.95 311.57 165.86
  Q 309.17 164.41 296.06 158.76
  Q 291.13 156.64 288.23 151.29
  Q 289.51 151.03 291.22 152.01
  Z"
/>
<path fill="#676773" fill-opacity="0.239" d="
  M 367.16 266.22
  Q 367.42 267.32 366.98 268.21
  Q 366.61 269.54 366.68 270.95
  Q 363.99 291.04 354.06 308.57
  Q 347.76 319.69 339.58 328.96
  A 4.13 4.09 -85.6 0 1 338.69 329.73
  Q 336.93 330.85 335.84 332.79
  Q 335.66 333.11 334.84 333.47
  A 2.18 2.15 -80.6 0 0 334.08 334.02
  Q 328.01 340.78 320.28 345.51
  L 318.79 345.81
  A 0.22 0.21 23.1 0 1 318.63 345.42
  C 334.33 335.56 344.87 322.30 353.37 306.08
  Q 358.93 295.47 361.67 283.87
  Q 368.75 253.83 358.97 225.58
  C 347.92 193.62 325.92 172.13 295.21 159.79
  C 297.56 160.43 300.04 161.14 302.17 162.22
  Q 309.22 165.77 316.91 169.12
  Q 318.96 170.01 321.80 172.89
  A 6.38 6.36 -6.4 0 0 323.02 173.86
  Q 327.13 176.43 330.68 179.88
  A 0.21 0.20 -46.0 0 0 330.98 179.87
  L 330.99 179.86
  A 0.21 0.21 0.0 0 0 330.97 179.56
  L 326.31 175.33
  A 0.39 0.38 -46.5 0 1 326.30 174.77
  L 326.50 174.57
  A 0.23 0.21 -45.0 0 1 326.81 174.56
  L 340.19 187.41
  A 15.15 14.86 7.4 0 1 342.72 190.63
  C 345.47 195.34 348.76 199.68 351.24 204.24
  C 355.37 211.82 359.25 217.75 361.83 225.74
  Q 366.10 239.00 366.70 254.33
  Q 366.93 260.26 367.16 266.22
  Z"
/>
<path fill="#676677" fill-opacity="0.404" d="
  M 26.18 169.21
  L 23.34 177.02
  L 26.18 169.21
  Z"
/>
<path fill="#676773" fill-opacity="0.239" d="
  M 178.32 182.25
  L 169.36 192.32
  Q 173.43 187.26 177.61 181.94
  Q 177.92 181.55 178.31 181.87
  Q 178.46 181.99 178.32 182.25
  Z"
/>
<path fill="#676773" fill-opacity="0.239" d="
  M 168.71 194.20
  C 165.06 200.50 160.69 207.35 157.89 213.23
  Q 146.64 236.88 147.44 262.29
  Q 148.28 288.81 162.12 312.20
  A 0.31 0.31 0.0 0 1 162.01 312.63
  L 161.79 312.76
  A 0.18 0.18 0.0 0 1 161.55 312.69
  L 157.31 305.01
  A 0.02 0.02 0.0 0 0 157.28 305.02
  C 157.39 306.55 158.57 306.78 157.91 308.56
  L 151.24 294.11
  Q 150.80 289.96 148.72 286.26
  Q 145.97 277.51 144.99 268.29
  Q 146.18 270.72 146.53 273.40
  A 0.17 0.17 0.0 0 0 146.72 273.55
  L 146.72 273.54
  A 0.20 0.20 0.0 0 0 146.90 273.30
  C 146.24 268.94 145.41 264.09 145.47 259.97
  Q 145.74 241.84 151.11 225.39
  C 154.26 215.75 157.65 206.17 164.26 196.88
  A 0.21 0.21 0.0 0 1 164.56 196.84
  L 164.57 196.84
  A 0.12 0.11 43.2 0 1 164.58 197.00
  L 159.83 203.74
  A 0.19 0.19 0.0 0 0 159.88 204.00
  L 160.15 204.19
  A 0.29 0.29 0.0 0 0 160.61 204.00
  Q 160.92 202.24 162.03 201.37
  A 0.37 0.28 -10.9 0 0 162.11 201.28
  L 166.90 194.46
  A 0.16 0.16 0.0 0 1 167.18 194.63
  L 166.61 195.69
  A 0.18 0.18 0.0 0 0 166.90 195.91
  L 168.71 194.20
  Z"
/>
<path fill="#676677" fill-opacity="0.404" d="
  M 13.29 216.24
  L 10.18 244.71
  Q 9.47 238.22 10.03 233.31
  Q 11.42 221.11 11.73 216.44
  L 11.74 216.43
  Q 11.76 217.04 11.74 217.87
  A 0.08 0.08 0.0 0 0 11.90 217.89
  Q 12.95 213.26 13.29 216.24
  Z"
/>
<path fill="#676677" fill-opacity="0.404" d="
  M 501.55 239.54
  L 499.35 220.02
  Q 502.46 229.35 501.55 239.54
  Z"
/>
<path fill="#676677" fill-opacity="0.404" d="
  M 366.98 268.21
  Q 367.21 269.76 366.68 270.95
  Q 366.61 269.54 366.98 268.21
  Z"
/>
<path fill="#676677" fill-opacity="0.404" d="
  M 11.40 281.39
  Q 12.75 294.42 15.53 307.00
  Q 15.40 307.76 15.95 309.70
  Q 17.66 315.67 19.31 321.77
  Q 21.03 328.16 23.01 333.71
  Q 33.01 361.74 47.83 384.70
  Q 77.97 431.41 125.68 460.98
  Q 155.68 479.58 190.58 489.04
  Q 225.47 498.50 260.78 497.74
  Q 306.00 496.76 347.64 480.38
  Q 388.91 464.14 422.80 433.55
  Q 438.98 418.96 453.96 399.49
  C 455.05 398.08 456.23 395.62 457.46 394.80
  A 0.80 0.78 -18.6 0 0 457.81 394.11
  Q 457.77 393.40 458.55 392.95
  A 0.99 0.96 1.1 0 0 458.82 392.70
  Q 481.73 360.06 493.21 320.34
  Q 493.59 319.04 494.15 316.95
  Q 496.80 307.11 497.83 299.97
  A 2.03 2.02 68.5 0 1 498.24 299.02
  Q 498.32 298.92 498.34 298.87
  A 1.81 1.81 0.0 0 0 498.56 297.93
  Q 498.44 294.63 499.27 292.49
  A 0.78 0.71 60.9 0 0 499.32 292.28
  L 500.45 284.72
  A 0.10 0.08 -38.0 0 1 500.46 284.68
  L 501.30 275.73
  L 502.14 269.87
  A 0.52 0.26 83.3 0 1 502.24 269.60
  Q 502.24 269.59 502.29 269.55
  A 0.08 0.04 73.2 0 1 502.37 269.63
  Q 502.77 271.70 502.38 276.66
  Q 500.43 301.45 494.47 322.04
  Q 491.19 333.34 491.17 334.09
  A 0.18 0.18 0.0 0 0 491.36 334.27
  Q 491.50 334.27 491.60 334.12
  A 0.06 0.06 0.0 0 1 491.70 334.17
  Q 489.60 340.66 486.63 346.73
  Q 485.80 348.44 483.75 354.59
  C 481.58 361.08 476.67 367.30 473.37 373.65
  Q 469.63 380.82 462.91 391.33
  C 461.81 393.06 459.10 395.32 458.63 396.73
  C 456.82 402.18 451.38 408.54 447.80 412.45
  A 0.25 0.25 0.0 0 1 447.47 412.48
  L 447.15 412.26
  A 0.20 0.20 0.0 0 1 447.11 411.96
  Q 449.49 409.36 451.13 406.37
  Q 451.12 406.37 451.12 406.36
  Q 443.23 417.01 437.07 424.06
  Q 432.29 429.52 426.09 434.77
  Q 423.55 436.91 416.55 442.85
  Q 406.02 451.77 403.45 453.70
  Q 396.97 458.56 381.85 467.53
  Q 354.69 483.63 325.03 491.84
  A 0.16 0.16 0.0 0 0 325.03 492.15
  L 325.29 492.20
  A 0.10 0.10 0.0 0 1 325.29 492.39
  C 318.54 494.08 309.38 496.66 300.35 497.48
  A 0.25 0.25 0.0 0 0 300.12 497.77
  L 300.16 498.05
  A 0.16 0.16 0.0 0 0 300.34 498.19
  L 306.07 497.37
  A 0.06 0.06 0.0 0 1 306.14 497.42
  L 306.18 497.68
  A 0.29 0.29 0.0 0 1 305.93 498.01
  Q 289.11 500.36 289.07 500.37
  C 278.62 501.74 270.02 501.55 258.50 502.06
  Q 251.72 502.35 244.39 501.74
  Q 223.20 499.96 203.59 495.63
  A 0.31 0.30 10.7 0 1 203.35 495.28
  L 203.35 495.26
  A 0.37 0.37 0.0 0 1 203.76 494.96
  Q 212.10 495.97 220.50 496.62
  Q 220.55 496.63 220.61 496.63
  C 216.66 496.63 211.83 495.70 207.18 495.07
  C 204.30 494.68 201.02 494.99 198.76 494.59
  C 188.20 492.69 180.41 489.50 166.56 484.78
  A 1.02 1.02 0.0 0 1 166.05 484.39
  Q 166.00 484.30 165.97 484.25
  A 0.89 0.85 -7.0 0 0 165.58 483.96
  Q 160.04 482.10 155.78 480.77
  C 152.04 479.60 148.10 476.69 144.52 474.92
  Q 133.52 469.48 119.87 461.64
  Q 116.91 459.93 115.19 458.54
  C 101.84 447.73 95.67 442.35 86.73 436.27
  Q 81.00 432.36 76.32 426.92
  Q 67.13 416.22 59.01 407.14
  A 0.80 0.77 -67.9 0 1 58.81 406.64
  Q 58.80 406.19 58.69 406.05
  Q 51.47 396.35 45.15 386.46
  C 44.25 385.06 42.82 383.83 41.95 382.14
  Q 34.65 368.00 30.69 359.78
  Q 25.47 348.94 20.56 333.42
  A 5.57 5.47 -56.6 0 1 20.32 332.19
  Q 20.07 329.04 19.13 326.02
  Q 12.85 305.86 10.46 284.64
  Q 9.93 279.86 11.40 281.39
  Z"
/>
<path fill="#676677" fill-opacity="0.404" d="
  M 151.24 294.11
  L 148.72 286.26
  Q 150.80 289.96 151.24 294.11
  Z"
/>
<path fill="#676773" fill-opacity="0.239" d="
  M 173.28 329.33
  L 168.26 323.77
  L 162.68 313.73
  A 0.31 0.29 -28.6 0 1 162.82 313.32
  L 162.83 313.31
  A 0.37 0.34 60.6 0 1 163.29 313.46
  L 173.28 329.33
  Z"
/>
<path fill="#676773" fill-opacity="0.239" d="
  M 315.75 348.65
  Q 298.86 359.31 279.26 363.23
  Q 285.99 360.73 292.68 358.37
  Q 302.26 354.99 311.16 350.13
  Q 313.28 348.97 315.75 348.65
  Z"
/>
<path fill="#676773" fill-opacity="0.239" d="
  M 220.43 359.79
  L 219.55 359.67
  Q 220.15 359.44 220.43 359.79
  Z"
/>
<path fill="#676773" fill-opacity="0.239" d="
  M 233.05 363.22
  Q 231.92 363.19 231.15 362.81
  L 229.97 362.48
  A 0.14 0.14 0.0 0 1 229.92 362.24
  Q 230.04 362.14 230.25 362.15
  Q 231.85 362.22 233.05 363.22
  Z"
/>
</svg>
